<svg width="457" height="386" viewBox="0 0 457 386" fill="none" xmlns="http://www.w3.org/2000/svg">
<path d="M98.4051 268.152L139.289 206.795L47.7284 151.232L0.444336 222.195L76.1762 268.152H98.4051Z" fill="#F0F0F0"/>
<path d="M143.689 282.999C147.199 282.999 150.044 280.299 150.044 276.968C150.044 273.636 147.199 270.936 143.689 270.936C140.178 270.936 137.333 273.636 137.333 276.968C137.333 280.299 140.178 282.999 143.689 282.999Z" fill="#A64FAE"/>
<path d="M124.133 282.999C127.643 282.999 130.489 280.299 130.489 276.968C130.489 273.636 127.643 270.936 124.133 270.936C120.623 270.936 117.778 273.636 117.778 276.968C117.778 280.299 120.623 282.999 124.133 282.999Z" fill="#A64FAE"/>
<path d="M106.533 282.999C110.043 282.999 112.889 280.299 112.889 276.968C112.889 273.636 110.043 270.936 106.533 270.936C103.023 270.936 100.178 273.636 100.178 276.968C100.178 280.299 103.023 282.999 106.533 282.999Z" fill="#A64FAE"/>
<path d="M87.9552 282.999C91.4652 282.999 94.3107 280.299 94.3107 276.968C94.3107 273.636 91.4652 270.936 87.9552 270.936C84.4451 270.936 81.5996 273.636 81.5996 276.968C81.5996 280.299 84.4451 282.999 87.9552 282.999Z" fill="#A64FAE"/>
<path d="M69.3775 282.999C72.8876 282.999 75.7331 280.299 75.7331 276.968C75.7331 273.636 72.8876 270.936 69.3775 270.936C65.8675 270.936 63.022 273.636 63.022 276.968C63.022 280.299 65.8675 282.999 69.3775 282.999Z" fill="#A64FAE"/>
<path d="M276.63 71.3749V23.9804H301.6V0.906738H179.377V116.899H283.858V105.558C283.858 101.288 285.645 97.1937 288.826 94.1747C292.007 91.1557 296.322 89.4597 300.821 89.4597H301.6V71.3749H276.63Z" fill="#F0F0F0"/>
<rect width="56.0842" height="38.2994" transform="matrix(0.94301 0.332765 -0.3648 0.931086 34.7656 23.7957)" fill="#F0F0F0"/>
<rect x="329.956" y="300.63" width="82.1333" height="15.7749" fill="#A64FAE"/>
<rect x="308.444" y="220.827" width="120.267" height="14.847" fill="#F0F0F0"/>
<rect x="367.111" y="97.412" width="29.3333" height="0.927935" fill="#A64FAE"/>
<path d="M456.089 106.691V156.8C426.929 156.799 403.29 134.365 403.289 106.691H456.089Z" fill="#A64FAE"/>
<path opacity="0.1" d="M417.467 154.016C427.457 154.016 435.556 146.33 435.556 136.849C435.556 127.368 427.457 119.682 417.467 119.682C407.477 119.682 399.378 127.368 399.378 136.849C399.378 146.33 407.477 154.016 417.467 154.016Z" fill="black"/>
<path d="M414.533 155.872C424.523 155.872 432.622 148.186 432.622 138.705C432.622 129.224 424.523 121.538 414.533 121.538C404.543 121.538 396.444 129.224 396.444 138.705C396.444 148.186 404.543 155.872 414.533 155.872Z" fill="#A64FAE"/>
<rect x="300.622" y="116.899" width="25.4222" height="8.35142" fill="#A64FAE"/>
<rect x="314.311" y="200.413" width="25.4222" height="8.35142" fill="#A64FAE"/>
<rect x="308.444" y="268.152" width="120.267" height="14.847" fill="#F0F0F0"/>
<rect x="314.311" y="246.81" width="25.4222" height="8.35142" fill="#A64FAE"/>
<path d="M431.645 226.859C431.644 229.403 429.963 231.673 427.441 232.534C424.919 233.395 422.099 232.662 420.391 230.701L420.385 230.695C418.722 228.78 418.464 226.094 419.735 223.926C421.007 221.758 423.548 220.55 426.138 220.882C428.729 221.214 430.841 223.019 431.46 225.43C431.46 225.431 431.461 225.433 431.462 225.434C431.463 225.435 431.465 225.436 431.467 225.436C431.584 225.902 431.644 226.38 431.645 226.859Z" fill="#A64FAE"/>
<path opacity="0.1" d="M431.644 226.511C431.644 229.202 429.919 231.603 427.332 232.514C424.745 233.424 421.852 232.649 420.1 230.575L420.094 230.568C419.973 230.075 419.912 229.57 419.911 229.063C419.911 226.372 421.637 223.971 424.224 223.06C426.811 222.149 429.704 222.925 431.455 224.999C431.455 225.001 431.456 225.003 431.457 225.004C431.459 225.005 431.46 225.006 431.462 225.006C431.582 225.499 431.644 226.004 431.644 226.511Z" fill="black"/>
<path d="M428.222 235.674C431.732 235.674 434.578 232.974 434.578 229.643C434.578 226.312 431.732 223.611 428.222 223.611C424.712 223.611 421.867 226.312 421.867 229.643C421.867 232.974 424.712 235.674 428.222 235.674Z" fill="#A64FAE"/>
<path d="M431.645 273.256C431.644 275.8 429.963 278.07 427.441 278.931C424.919 279.792 422.099 279.059 420.391 277.098L420.385 277.092C418.722 275.177 418.464 272.491 419.735 270.323C421.007 268.154 423.548 266.946 426.138 267.279C428.729 267.611 430.841 269.416 431.46 271.826C431.46 271.828 431.461 271.83 431.462 271.831C431.463 271.832 431.465 271.832 431.467 271.832C431.584 272.299 431.644 272.776 431.645 273.256Z" fill="#A64FAE"/>
<path opacity="0.1" d="M431.644 273.836C431.644 276.527 429.919 278.928 427.332 279.838C424.745 280.749 421.852 279.973 420.1 277.899L420.094 277.893C419.973 277.4 419.912 276.895 419.911 276.388C419.911 273.697 421.637 271.296 424.224 270.385C426.811 269.474 429.704 270.25 431.455 272.324C431.455 272.326 431.456 272.327 431.457 272.329C431.459 272.33 431.46 272.33 431.462 272.33C431.582 272.824 431.644 273.329 431.644 273.836Z" fill="black"/>
<path d="M428.222 282.999C431.732 282.999 434.578 280.299 434.578 276.968C434.578 273.636 431.732 270.936 428.222 270.936C424.712 270.936 421.867 273.636 421.867 276.968C421.867 280.299 424.712 282.999 428.222 282.999Z" fill="#A64FAE"/>
<rect x="284" y="30.6007" width="34.2222" height="32.4777" fill="#F0F0F0"/>
<path d="M166.667 171.558L169.598 173.067L179.571 178.203L195.673 186.494L205.056 169.857C206.841 166.7 207.238 162.994 206.161 159.556C205.083 156.119 202.619 153.232 199.312 151.532C192.132 147.827 183.27 148.976 177.383 154.376L177.378 154.38C175.966 155.676 174.775 157.175 173.847 158.822L166.667 171.558Z" fill="#A64FAE"/>
<path d="M210.666 338.75L208.779 359.981L201.698 360.946L196.978 336.819L210.666 338.75Z" fill="#F89D8F"/>
<path d="M199.277 361.519C199.277 361.519 208.64 356.757 210.611 360.567C210.611 360.567 209.133 371.996 215.046 373.424C220.959 374.853 223.423 384.853 215.046 385.805C206.669 386.758 201.248 383.901 198.292 383.901C195.335 383.901 198.292 373.9 198.292 373.9L199.277 361.519Z" fill="#A64FAE"/>
<path d="M151.022 338.75L152.91 359.981L159.991 360.946L164.711 336.819L151.022 338.75Z" fill="#F89D8F"/>
<path d="M163.389 361.519C163.389 361.519 154.026 356.757 152.055 360.567C152.055 360.567 153.534 371.996 147.62 373.424C141.707 374.853 139.243 384.853 147.62 385.805C155.998 386.758 161.418 383.901 164.375 383.901C167.331 383.901 164.375 373.9 164.375 373.9L163.389 361.519Z" fill="#A64FAE"/>
<path d="M190.622 175.359C197.912 175.359 203.822 169.75 203.822 162.832C203.822 155.913 197.912 150.304 190.622 150.304C183.332 150.304 177.422 155.913 177.422 162.832C177.422 169.75 183.332 175.359 190.622 175.359Z" fill="#F89D8F"/>
<path d="M151.022 186.308L161.283 201.799L173.499 200.86L193.533 202.269C193.533 202.269 195.424 198.635 196.968 195.101C197.814 193.335 198.464 191.49 198.908 189.594C199.397 186.308 192.556 183.022 192.556 183.022C192.556 183.022 192.287 182.975 191.838 182.872C191.241 182.736 190.323 182.511 189.316 182.182C187.044 181.44 184.313 180.182 183.76 178.328C182.783 175.042 190.113 170.348 190.113 170.348L181.317 162.367C181.317 162.367 173.504 172.793 164.015 175.169C163.465 175.308 162.907 175.418 162.344 175.497C162.314 175.502 162.29 175.507 162.261 175.511C151.999 176.92 151.022 186.308 151.022 186.308Z" fill="#F89D8F"/>
<path d="M156.17 182.782L150.51 186.993C150.51 186.993 145.88 207.113 147.423 212.728C148.967 218.343 146.909 223.49 146.909 224.426C146.909 225.362 142.279 260.455 142.279 260.455C142.279 260.455 133.018 279.172 142.793 277.3C152.568 275.428 148.967 256.712 148.967 256.712L160.8 223.958V196.351L156.17 182.782Z" fill="#F89D8F"/>
<path d="M195.067 186.494L199.067 189.277L201.067 228.247L216.069 261.649C216.069 261.649 227.07 277.886 220.069 278.35C213.068 278.814 208.568 261.649 208.568 261.649L195.067 229.638L193.066 198.556L195.067 186.494Z" fill="#F89D8F"/>
<path d="M170.318 188.35C170.318 188.35 180.18 194.917 195.961 192.572C195.961 192.572 200.399 201.016 197.933 205.707C195.467 210.398 200.892 221.657 201.878 223.064C202.864 224.471 214.207 253.556 218.152 284.987C222.097 316.418 232.946 337.997 223.576 340.812C214.207 343.626 194.974 346.91 193.002 344.095C191.029 341.281 188.07 271.383 188.07 271.383L182.646 298.122C182.646 298.122 190.043 343.626 184.618 344.564C179.194 345.503 145.168 342.688 146.154 337.059C147.14 331.429 157.003 301.875 157.003 301.875C157.003 301.875 156.51 242.767 166.372 231.508C166.372 231.508 170.317 225.41 164.893 217.435C159.469 209.46 159.962 196.794 159.962 196.794C159.962 196.794 163.907 196.794 170.318 188.35Z" fill="#9347B2"/>
<path d="M161.777 175.686L169.678 192.989L171.555 192.055L163.383 175.359L161.777 175.686Z" fill="#A64FAE"/>
<path d="M189.155 182.782L195.464 195.773L196.977 195.647L196.463 193.436L191.733 183.469C191.123 183.334 190.184 183.109 189.155 182.782Z" fill="#A64FAE"/>
<path d="M168.99 172.597C169.958 175.627 172.696 177.798 175.94 178.105C179.184 178.413 182.301 176.797 183.85 174.005C177.626 166.08 182.964 161.102 193.076 157.336C194.634 154.521 194.29 151.068 192.205 148.597C186.56 147.894 180.891 149.711 176.779 153.542L176.774 153.546L169.591 166.521C168.557 168.385 168.34 170.576 168.99 172.597Z" fill="#A64FAE"/>
<path d="M183.777 167.007C184.587 167.007 185.244 165.761 185.244 164.223C185.244 162.686 184.587 161.44 183.777 161.44C182.967 161.44 182.311 162.686 182.311 164.223C182.311 165.761 182.967 167.007 183.777 167.007Z" fill="#DCDCE3"/>
<path d="M189.155 159.696L204.029 166.079L206.755 160.38C206.286 158.298 205.302 156.35 203.885 154.696L193.648 150.304L189.155 159.696Z" fill="#A64FAE"/>
<path d="M224.844 284.855C228.354 284.855 231.2 282.155 231.2 278.823C231.2 275.492 228.354 272.792 224.844 272.792C221.334 272.792 218.489 275.492 218.489 278.823C218.489 282.155 221.334 284.855 224.844 284.855Z" fill="#A64FAE"/>
<path d="M13.6441 321.972C16.0742 321.972 18.0441 320.103 18.0441 317.797C18.0441 315.491 16.0742 313.621 13.6441 313.621C11.2141 313.621 9.24414 315.491 9.24414 317.797C9.24414 320.103 11.2141 321.972 13.6441 321.972Z" fill="#FF6584"/>
<rect x="33.689" y="339.603" width="0.977778" height="46.3968" fill="#FD749B"/>
<path d="M34.6667 345.171C38.4468 345.171 41.5112 342.262 41.5112 338.675C41.5112 335.088 38.4468 332.18 34.6667 332.18C30.8866 332.18 27.8223 335.088 27.8223 338.675C27.8223 342.262 30.8866 345.171 34.6667 345.171Z" fill="#FD749B"/>
<path d="M33.6886 367.441C33.6886 367.441 32.7336 347.701 13.1553 349.996L33.6886 367.441Z" fill="#FD749B"/>
</svg>
