<svg width="167" height="175" viewBox="0 0 167 175" fill="none" xmlns="http://www.w3.org/2000/svg">
<path opacity="0.1" d="M83.2989 166.598C129.304 166.598 166.598 129.304 166.598 83.2989C166.598 37.2942 129.304 0 83.2989 0C37.2942 0 0 37.2942 0 83.2989C0 129.304 37.2942 166.598 83.2989 166.598Z" fill="url(#paint0_linear)"/>
<path d="M131.549 174.991V175H34.9763V174.991C34.9763 161.599 40.4192 149.482 49.2234 140.742C49.6334 140.332 50.0433 139.941 50.4701 139.549C51.7363 138.375 53.0654 137.274 54.4485 136.245C55.3587 135.562 56.3062 134.925 57.2616 134.307C58.2179 133.688 59.2008 133.105 60.2111 132.558C60.2297 132.539 60.2483 132.539 60.2483 132.539C60.6387 132.321 61.0213 132.103 61.4047 131.865C62.5513 131.192 63.6351 130.427 64.672 129.599C69.0692 126.103 72.4747 121.405 74.413 116.016V116.006C75.5694 112.793 76.1981 109.324 76.1981 105.7L90.4726 105.764C90.4726 109.341 91.0818 112.783 92.2116 115.969C94.1322 121.385 97.5191 126.092 101.916 129.606C102.216 129.851 102.525 130.088 102.835 130.316C103.263 130.635 103.7 130.945 104.137 131.236C104.465 131.454 104.802 131.672 105.139 131.873C105.512 132.101 105.895 132.329 106.277 132.538C106.313 132.547 106.34 132.556 106.368 132.574C106.395 132.592 106.423 132.61 106.451 132.628C107.571 133.247 108.663 133.902 109.718 134.594C110.073 134.823 110.428 135.058 110.774 135.305C111.23 135.633 111.694 135.961 112.14 136.307H112.158C123.929 145.103 131.549 159.141 131.549 174.991Z" fill="#F89D8F"/>
<path d="M131.549 174.991H34.9763C34.9763 161.6 40.4192 149.482 49.2234 140.743C49.6334 140.333 50.0433 139.941 50.4701 139.55C51.7363 138.376 53.0654 137.265 54.4485 136.237C55.3587 135.562 56.3062 134.916 57.2616 134.306C58.2179 133.687 59.2008 133.105 60.2111 132.557C60.2297 132.539 60.2483 132.539 60.2483 132.539C60.6387 132.32 61.0213 132.102 61.4047 131.865C62.5513 131.191 63.6351 130.427 64.672 129.598C69.4066 134.441 75.9971 137.436 83.3074 137.436C90.5912 137.436 97.1817 134.432 101.916 129.607C102.216 129.852 102.525 130.09 102.835 130.317C103.263 130.636 103.7 130.946 104.137 131.237C104.465 131.455 104.802 131.674 105.139 131.875C105.512 132.111 105.895 132.33 106.277 132.539C106.313 132.549 106.34 132.557 106.368 132.575C106.395 132.585 106.423 132.603 106.451 132.621C107.571 133.24 108.663 133.895 109.718 134.596C110.073 134.824 110.428 135.06 110.774 135.307C111.23 135.634 111.694 135.962 112.14 136.308H112.158C123.929 145.104 131.549 159.142 131.549 174.991Z" fill="#9347B2"/>
<path d="M46.2007 41.4465V71.6558C46.2007 97.3138 68.7242 118.112 83.2634 118.112C97.8036 118.112 120.327 97.3138 120.327 71.6558V41.4465H46.2007Z" fill="#F89D8F"/>
<path d="M46.2007 68.0219C48.0274 68.0219 49.507 66.5423 49.507 64.7165V43.7009H46.2007V68.0219Z" fill="#141720"/>
<path d="M120.324 68.0219V43.7009H117.019V64.7165C117.018 66.5423 118.498 68.0219 120.324 68.0219Z" fill="#141720"/>
<path d="M120.325 42.7924C120.325 47.117 120.034 48.1592 117.018 47.929C116.897 45.8331 101.841 44.1251 83.2724 44.1251C64.691 44.1251 49.6347 45.8331 49.5133 47.929C46.4975 48.1592 46.207 47.117 46.207 42.7924C46.207 42.3683 46.2194 41.9212 46.2309 41.4474C46.6914 30.7759 52.7107 10.8264 83.2724 10.8264C113.821 10.8264 119.841 30.7759 120.301 41.4474C120.312 41.9212 120.325 42.3692 120.325 42.7924Z" fill="#141720"/>
<path d="M101.923 129.381C98.8084 138.967 92.5358 148.453 83.296 156.209C74.0553 148.453 67.7925 138.967 64.6792 129.381C64.7252 129.398 64.7793 129.417 64.8253 129.435C69.7228 133.822 76.2052 136.5 83.296 136.5C90.3877 136.5 96.8604 133.832 101.759 129.444C101.813 129.426 101.868 129.399 101.923 129.381Z" fill="white"/>
<defs>
<linearGradient id="paint0_linear" x1="91.6288" y1="-26.2237" x2="101.028" y2="268.901" gradientUnits="userSpaceOnUse">
<stop stop-color="#FD749B"/>
<stop offset="1" stop-color="#281AC8"/>
</linearGradient>
</defs>
</svg>
